<svg width="64" height="65" viewBox="0 0 64 65" fill="none" xmlns="http://www.w3.org/2000/svg">
<circle cx="10" cy="38" r="2" fill="black"/>
<circle cx="19" cy="38" r="2" fill="black"/>
<circle cx="28" cy="38" r="2" fill="black"/>
<circle cx="10" cy="46" r="2" fill="black"/>
<circle cx="19" cy="46" r="2" fill="black"/>
<circle cx="28" cy="46" r="2" fill="black"/>
<circle cx="10" cy="54" r="2" fill="black"/>
<circle cx="19" cy="54" r="2" fill="black"/>
<circle cx="28" cy="54" r="2" fill="black"/>
<path d="M27 9H33C35.2091 9 37 10.7909 37 13V60C37 62.2091 35.2091 64 33 64H5C2.79086 64 1 62.2091 1 60V13C1 10.7909 2.79086 9 5 9H11V9" stroke="black" strokeWidth="2"/>
<path d="M37 14H39C40.1046 14 41 14.8954 41 16V44C41 45.1046 40.1046 46 39 46H37V14Z" stroke="black" strokeWidth="2"/>
<path d="M41 17H60C61.6569 17 63 18.3431 63 20V40C63 41.6569 61.6569 43 60 43H41V17Z" stroke="black" strokeWidth="2"/>
<rect x="41" y="22" width="22" height="6" stroke="black" strokeWidth="2"/>
<rect x="11" y="1" width="16" height="12" stroke="#E52D2D" strokeWidth="2" stroke-linejoin="round"/>
<path d="M30 13H8" stroke="black" strokeWidth="2" stroke-linecap="round" stroke-linejoin="round"/>
<rect x="6" y="18" width="26" height="11" rx="1" stroke="black" strokeWidth="2"/>
</svg>
