<svg width="79" height="84" viewBox="0 0 79 84" fill="none" xmlns="http://www.w3.org/2000/svg">
<path d="M31.8932 22.0794C31.8932 21.385 31.7053 20.7365 31.4332 20.1207C28.2458 20.5059 25.0789 21.1 22.1012 21.8833C22.0986 21.9504 22.0801 22.0124 22.0801 22.0794C22.0801 24.7844 24.2816 26.986 26.9866 26.986C29.691 26.986 31.8932 24.7844 31.8932 22.0794Z" fill="black"/>
<path fill-rule="evenodd" clip-rule="evenodd" d="M71.1429 26.5381C69.2282 26.5381 67.3864 26.1043 65.6684 25.2463C64.3147 24.5704 62.7935 23.9571 61.2002 23.3834C60.5811 26.8192 57.5841 29.4393 53.9726 29.4393C49.9138 29.4393 46.6128 26.1376 46.6128 22.0794V20.0593C44.1352 19.7769 41.6539 19.6191 39.2504 19.6191C38.3355 19.6191 37.4034 19.6575 36.4707 19.6996C36.6662 20.4771 36.7997 21.2713 36.7997 22.0794C36.7997 27.492 32.3985 31.8925 26.9866 31.8925C22.02 31.8925 17.9498 28.1743 17.3051 23.3821C15.715 23.9552 14.197 24.5672 12.8464 25.2419C11.1982 26.066 9.33648 26.5049 7.4633 26.5049C7.40213 26.5049 7.34319 26.4928 7.28417 26.4806L7.28416 26.4806C7.22914 26.4693 7.17406 26.4579 7.11703 26.4564L12.267 36.0158V61.3318C12.267 65.3899 15.568 68.6916 19.6268 68.6916C23.1125 68.6916 26.0373 66.2575 26.7969 62.9992L37.0917 82.4472C37.5203 83.2425 38.3496 83.7383 39.253 83.7383C40.1557 83.7383 40.985 83.2425 41.4136 82.4472L48.7837 68.4316C48.0828 68.5906 47.3609 68.6916 46.6128 68.6916C41.1926 68.6916 36.7997 64.2981 36.7997 58.8785C36.7997 53.459 41.1926 49.0654 46.6128 49.0654C50.8204 49.0654 54.3802 51.727 55.7749 55.4478L71.3576 26.5081C71.3217 26.5087 71.2874 26.5159 71.253 26.5231C71.217 26.5306 71.1809 26.5381 71.1429 26.5381ZM34.3464 46.6121C30.2877 46.6121 26.9866 43.3105 26.9866 39.2523C26.9866 37.8966 28.0836 36.7991 29.4399 36.7991C30.7956 36.7991 31.8932 37.8966 31.8932 39.2523C31.8932 40.6061 32.9927 41.7056 34.3464 41.7056C35.6996 41.7056 36.7997 40.6061 36.7997 39.2523C36.7997 37.8966 37.8966 36.7991 39.253 36.7991C40.6087 36.7991 41.7062 37.8966 41.7062 39.2523C41.7062 43.3105 38.4045 46.6121 34.3464 46.6121ZM46.6128 36.7991C46.6128 38.1541 47.711 39.2523 49.0661 39.2523C50.4205 39.2523 51.5193 38.1541 51.5193 36.7991C51.5193 35.444 50.4205 34.3458 49.0661 34.3458C47.711 34.3458 46.6128 35.444 46.6128 36.7991Z" fill="black"/>
<path d="M46.6128 53.972C43.9078 53.972 41.7062 56.1735 41.7062 58.8785C41.7062 61.5835 43.9078 63.785 46.6128 63.785C49.3171 63.785 51.5193 61.5835 51.5193 58.8785C51.5193 56.1735 49.3171 53.972 46.6128 53.972Z" fill="black"/>
<path d="M77.7291 17.5607C79.5422 13.9338 78.0664 9.50387 74.437 7.68564C64.9567 2.94456 51.4784 0 39.26 0C27.0345 0 13.5511 2.94456 4.0709 7.68564C0.438906 9.50387 -1.03944 13.9313 0.77687 17.5632C2.55166 21.0969 7.0966 22.6327 10.6519 20.8528C18.1146 17.1224 29.3389 14.7126 39.2504 14.7126C43.2395 14.7126 47.435 15.1183 51.5193 15.8281V22.0794C51.5193 23.4345 52.6176 24.5327 53.9726 24.5327C55.327 24.5327 56.4259 23.4345 56.4259 22.0794V16.8573C60.6603 17.8897 64.6194 19.2377 67.8534 20.8554C71.4649 22.6525 75.8834 21.2444 77.7291 17.5607Z" fill="black"/>
</svg>
