<svg width="91" height="81" viewBox="0 0 91 81" fill="none" xmlns="http://www.w3.org/2000/svg">
<path fill-rule="evenodd" clip-rule="evenodd" d="M84.52 39.8391C84.682 40.7031 85.492 41.2971 86.356 41.1351C87.22 40.9731 87.814 40.1631 87.652 39.2991C87.382 37.5711 87.274 35.2491 87.328 33.4671C87.382 32.5491 87.382 31.4691 87.328 30.2271C87.058 20.5071 86.572 13.2171 85.87 8.41108C85.168 3.44308 82.9 -0.444917 77.77 0.0410833C75.448 0.257083 74.53 0.689083 73.936 3.22708C73.5694 4.74564 73.6091 6.51809 73.6611 8.83987V8.84L73.666 9.05908C73.72 10.3011 73.72 10.9491 73.72 11.0571C73.72 15.2576 73.8771 19.6152 74.0881 25.4701L74.098 25.7451L74.314 32.4411C74.476 34.7631 74.476 37.3011 74.044 39.1911C73.828 40.0551 74.314 40.8651 75.178 41.0811C76.042 41.2971 76.852 40.8111 77.068 39.9471C77.662 37.6251 77.608 34.3311 77.446 32.3331C77.392 31.7391 77.284 28.5531 77.122 22.8831C77.284 22.9371 77.392 22.9371 77.554 22.9371C78.094 22.9371 79.282 22.9911 81.118 23.0991C82.36 23.1531 83.278 23.2071 83.98 23.2611C83.9944 23.7065 84.0125 24.2016 84.0325 24.7454L84.0326 24.7465C84.0877 26.2463 84.1564 28.1162 84.196 30.3351C84.25 31.5771 84.25 32.6031 84.196 33.3591C84.142 35.2491 84.25 37.8951 84.52 39.8391ZM3.35799 41.6211C4.22199 41.6751 4.97799 41.0271 5.03199 40.1631C5.40999 35.7891 5.46399 30.8211 5.30199 25.2591C9.29799 24.1251 11.782 22.2351 12.808 19.5891C13.726 16.9971 13.51 12.0831 12.214 8.03308C10.756 3.28108 7.83999 -0.336917 3.68199 0.689083C2.33199 0.959083 1.46799 1.49908 1.03599 2.25508C0.873991 2.47108 0.819991 2.74108 0.819991 3.01108C0.765991 3.11908 0.765991 3.28108 0.765991 3.44308V4.46908C0.818645 5.89075 0.8713 6.54228 1.27439 11.5301L1.30599 11.9211C2.22399 24.0171 2.43999 33.3591 1.89999 39.9471C1.84599 40.8111 2.49399 41.5671 3.35799 41.6211ZM5.13999 22.0191C4.97799 19.2111 4.76199 15.7551 4.43799 11.7051C4.00599 6.95308 3.95199 5.71108 3.89799 4.36108V3.82108L4.32999 3.71308C5.30199 3.49708 6.21999 3.82108 7.02999 4.68508C8.75799 6.57508 9.99999 10.6791 10.216 14.5131C10.432 18.4011 10.324 20.3451 5.13999 22.0191ZM24.148 41.0811C21.826 41.3511 19.936 41.4591 18.478 41.4051C17.614 41.4051 16.966 40.6491 16.966 39.7851C16.966 38.9211 17.722 38.2731 18.586 38.2731C19.774 38.3271 21.232 38.2191 22.906 38.0571C22.89 37.849 22.874 37.5981 22.8552 37.3031L22.8551 37.3026L22.8551 37.3026C22.8104 36.6027 22.7499 35.6544 22.636 34.4391C22.2213 29.6698 22.1549 27.0405 22.1503 21.9169L22.1508 19.1368C22.1534 16.9498 22.1635 14.5806 22.204 12.0291C22.258 8.62708 22.258 6.03508 22.258 4.19908V4.09108H19.018C18.154 4.09108 17.452 3.38908 17.452 2.52508C17.452 1.66108 18.154 0.959083 19.018 0.959083L23.0962 0.958099C26.4504 0.955344 28.5362 0.944873 29.332 0.905083C30.196 0.905083 30.952 1.55308 30.952 2.41708C30.952 3.28108 30.304 4.03708 29.44 4.03708C28.252 4.09108 26.902 4.09108 25.39 4.09108V16.6191C25.282 24.8811 25.282 28.9851 25.39 28.9851C25.444 30.0111 25.552 31.7391 25.768 34.1691C25.9071 35.4212 25.9666 36.4742 26.0148 37.3281L26.0149 37.3297C26.0228 37.4695 26.0304 37.604 26.038 37.7331C27.928 37.5171 29.494 37.4091 30.736 37.4091C31.6 37.4091 32.302 38.1111 32.302 38.9751C32.302 39.8391 31.6 40.5411 30.736 40.5411C29.494 40.5411 27.658 40.7031 25.228 40.9731C25.012 41.0811 24.796 41.1351 24.526 41.1351C24.418 41.1351 24.31 41.1351 24.148 41.0811ZM40.132 41.5131C41.86 41.6751 46.72 41.6211 48.88 41.4051C49.744 41.3511 50.338 40.5411 50.284 39.6771C50.23 38.8131 49.42 38.2191 48.556 38.2731C46.612 38.4891 41.86 38.5431 40.348 38.3811H40.186L40.672 35.8431C40.7752 35.4648 40.8564 35.0866 40.9437 34.6804L40.9437 34.6804L40.9437 34.6802L40.9438 34.6798C40.9935 34.4484 41.0452 34.2078 41.104 33.9531C41.1602 33.7284 41.2098 33.5103 41.2575 33.3009L41.2575 33.3008L41.2575 33.3008L41.2576 33.3007C41.3474 32.9061 41.4302 32.5425 41.536 32.2251C41.644 31.7391 41.698 31.4691 41.698 31.3611C43.156 24.8811 45.262 17.1591 48.124 8.14108C48.124 8.08708 48.394 7.49308 48.988 6.30508C49.474 5.17108 49.636 4.19908 49.474 3.33508C49.096 1.12108 47.314 0.797083 45.37 0.797083C44.884 0.797083 44.02 0.797083 42.778 0.851083C42.2117 0.863395 41.6987 0.875706 41.239 0.886738C39.6825 0.924093 38.7375 0.946772 38.404 0.905083C37.972 0.851083 37.594 0.959083 37.27 1.22908C36.892 1.49908 36.73 1.87708 36.676 2.30908C36.622 3.17308 37.216 3.98308 38.08 4.03708C38.5438 4.07924 39.6001 4.05557 41.3003 4.01746L41.3003 4.01746L41.3004 4.01746L41.3006 4.01745L41.3015 4.01744C41.7786 4.00674 42.3064 3.99491 42.886 3.98308C44.236 3.92908 45.046 3.92908 45.37 3.92908H46.126C46.18 3.87508 46.18 3.87508 46.234 3.87508C46.288 3.87508 46.342 3.87508 46.288 3.92908C46.3196 3.91327 46.3466 3.89745 46.369 3.88435C46.423 3.85272 46.45 3.8369 46.45 3.87508C46.504 4.14508 46.396 4.46908 46.126 4.95508C45.7639 5.77806 45.482 6.36022 45.3049 6.72604L45.3049 6.72622C45.1915 6.96038 45.1211 7.10586 45.1 7.16908C42.238 16.2951 40.078 24.1251 38.674 30.7131C38.6263 30.7607 38.5787 30.9767 38.4939 31.3609L38.4938 31.3611L38.4938 31.3611L38.458 31.5231L38.026 33.3051C37.864 34.007 37.756 34.6009 37.648 35.1949L37.648 35.1949L37.648 35.1951C37.378 36.3831 37.162 37.3551 37.054 38.0571L37.0305 38.2426C36.9854 38.5971 36.946 38.9065 36.946 39.1371V39.6771C37.108 40.5411 37.594 41.0271 38.296 41.2431L38.836 41.4051C39.214 41.4591 39.646 41.5131 40.132 41.5131ZM66.862 41.4051C64.702 41.6211 59.842 41.6751 58.114 41.5131C57.628 41.5131 57.196 41.4591 56.818 41.4051L56.278 41.2431C55.576 41.0271 55.09 40.5411 54.928 39.6771V39.1371C54.928 38.9065 54.9674 38.5971 55.0125 38.2426L55.036 38.0571C55.144 37.3551 55.36 36.3831 55.63 35.1951L55.63 35.1949L55.63 35.1949C55.738 34.6009 55.846 34.007 56.008 33.3051L56.44 31.5231L56.4758 31.3611L56.4758 31.3611L56.4759 31.3609C56.5607 30.9767 56.6083 30.7607 56.656 30.7131C58.06 24.1251 60.22 16.2951 63.082 7.16908C63.1031 7.10586 63.1735 6.96038 63.2868 6.72622L63.2869 6.72604C63.464 6.36022 63.7459 5.77806 64.108 4.95508C64.378 4.46908 64.486 4.14508 64.432 3.87508C64.432 3.8369 64.405 3.85272 64.351 3.88435C64.3286 3.89745 64.3016 3.91327 64.27 3.92908C64.324 3.87508 64.27 3.87508 64.216 3.87508C64.162 3.87508 64.162 3.87508 64.108 3.92908H63.352C63.028 3.92908 62.218 3.92908 60.868 3.98308C60.2885 3.99491 59.7607 4.00674 59.2837 4.01743L59.2826 4.01745L59.2824 4.01746L59.2823 4.01746L59.2823 4.01746C57.5821 4.05557 56.5258 4.07924 56.062 4.03708C55.198 3.98308 54.604 3.17308 54.658 2.30908C54.712 1.87708 54.874 1.49908 55.252 1.22908C55.576 0.959083 55.954 0.851083 56.386 0.905083C56.7195 0.946772 57.6645 0.924093 59.221 0.886738C59.6807 0.875706 60.1937 0.863395 60.76 0.851083C62.002 0.797083 62.866 0.797083 63.352 0.797083C65.296 0.797083 67.078 1.12108 67.456 3.33508C67.618 4.19908 67.456 5.17108 66.97 6.30508C66.376 7.49308 66.106 8.08708 66.106 8.14108C63.244 17.1591 61.138 24.8811 59.68 31.3611C59.68 31.4691 59.626 31.7391 59.518 32.2251C59.4122 32.5426 59.3294 32.9062 59.2395 33.3008L59.2395 33.3008L59.2395 33.3009C59.1918 33.5103 59.1422 33.7284 59.086 33.9531C59.0272 34.208 58.9755 34.4486 58.9257 34.6802L58.9257 34.6804L58.9257 34.6804C58.8384 35.0866 58.7571 35.4648 58.654 35.8431L58.168 38.3811H58.33C59.842 38.5431 64.594 38.4891 66.538 38.2731C67.402 38.2191 68.212 38.8131 68.266 39.6771C68.32 40.5411 67.726 41.3511 66.862 41.4051ZM82.5935 20.0535C83.1214 20.0874 83.556 20.1153 83.818 20.1291C83.602 15.9711 83.224 12.2451 82.738 8.84308C82.144 4.95508 80.848 2.90308 78.094 3.17308C77.608 3.22708 77.338 3.22708 77.23 3.22708C77.122 3.38908 77.014 3.60508 76.96 3.92908C76.744 5.06308 76.744 6.41308 76.798 8.95108C76.852 10.1931 76.852 10.8951 76.852 11.0571C76.852 13.5951 76.906 16.5111 77.014 19.9131C77.176 19.8591 77.392 19.8051 77.554 19.8051C78.7201 19.8051 81.0539 19.9548 82.5935 20.0535Z" fill="black"/>
<path fill-rule="evenodd" clip-rule="evenodd" d="M9.36 80.0511C9.22667 80.1978 8.93333 80.2711 8.48 80.2711C8.26667 80.2711 7.8 80.2444 7.08 80.1911C6.36 80.1378 5.6 80.1111 4.8 80.1111C3.84 80.1111 3.10667 80.1311 2.6 80.1711C2.09333 80.2111 1.54667 80.2444 0.96 80.2711C0.746667 80.2711 0.533333 80.2178 0.32 80.1111C0.106667 80.0044 0 79.7778 0 79.4311C0 79.2444 0.0533333 78.9911 0.16 78.6711C0.533333 77.4977 0.76 76.7511 0.84 76.4311C0.92 76.1111 0.986667 75.2578 1.04 73.8711C1.09333 72.4844 1.12 71.4578 1.12 70.7911V59.6711C1.12 58.8178 1.1 57.9978 1.06 57.2111C1.02 56.4244 0.946667 55.8044 0.84 55.3511C0.733333 54.8978 0.613333 54.4644 0.48 54.0511C0.346667 53.6378 0.28 53.3244 0.28 53.1111C0.28 52.7911 0.4 52.5711 0.64 52.4511C0.88 52.3311 1.12 52.2711 1.36 52.2711C2.05333 52.2711 2.62667 52.3044 3.08 52.3711C3.53333 52.4378 4.08 52.4711 4.72 52.4711C5.6 52.4711 6.20667 52.4378 6.54 52.3711C6.87333 52.3044 7.2 52.2711 7.52 52.2711C8.08 52.2711 8.52 52.6444 8.84 53.3911C9.08 53.9778 9.32 54.5511 9.56 55.1111C10.0133 56.1244 10.3867 56.8444 10.68 57.2711C11.1867 58.0444 11.72 58.4311 12.28 58.4311C12.5733 58.4311 12.8933 58.2578 13.24 57.9111C13.6933 57.4578 14.2667 56.6444 14.96 55.4711C15.84 53.9778 16.42 53.0711 16.7 52.7511C16.98 52.4311 17.3467 52.2711 17.8 52.2711C18.28 52.2711 18.6667 52.2978 18.96 52.3511C19.2533 52.4044 19.7067 52.4311 20.32 52.4311C21.1467 52.4311 21.7933 52.4178 22.26 52.3911C22.7267 52.3644 23.2 52.3244 23.68 52.2711C24.0267 52.2711 24.28 52.3378 24.44 52.4711C24.6 52.6044 24.68 52.8044 24.68 53.0711C24.68 53.8444 24.52 54.6444 24.2 55.4711C23.88 56.2978 23.72 57.6044 23.72 59.3911V71.5111C23.72 73.2711 23.88 74.9111 24.2 76.4311C24.3067 76.9111 24.4333 77.4711 24.58 78.1111C24.7267 78.7511 24.8 79.2044 24.8 79.4711C24.8 79.7111 24.74 79.9044 24.62 80.0511C24.5 80.1978 24.2533 80.2711 23.88 80.2711C23.6133 80.2711 23.1067 80.2444 22.36 80.1911C21.6133 80.1378 20.8133 80.1111 19.96 80.1111C19.08 80.1111 18.3867 80.1378 17.88 80.1911C17.3733 80.2444 16.8533 80.2711 16.32 80.2711C15.6267 80.2711 15.28 80.0444 15.28 79.5911C15.6267 78.4977 15.92 77.3844 16.16 76.2511C16.4 75.1178 16.52 73.7778 16.52 72.2311V64.8711C16.52 64.3644 16.3867 64.1111 16.12 64.1111C15.9867 64.1111 15.7733 64.3044 15.48 64.6911C15.1867 65.0778 14.96 65.3644 14.8 65.5511L13.76 67.0711C13.3333 67.5778 12.88 67.8311 12.4 67.8311C11.92 67.8311 11.5133 67.6911 11.18 67.4111C10.8467 67.1311 10.3867 66.4711 9.8 65.4311C9.64 65.1644 9.46667 64.8778 9.28 64.5711C9.09333 64.2644 8.89333 64.1111 8.68 64.1111C8.52 64.1111 8.42 64.1711 8.38 64.2911C8.34 64.4111 8.32 64.5778 8.32 64.7911V72.1511C8.32 73.6178 8.44 74.9244 8.68 76.0711C8.76 76.4977 8.97333 77.2178 9.32 78.2311C9.48 78.7644 9.56 79.1778 9.56 79.4711C9.56 79.7111 9.49333 79.9044 9.36 80.0511ZM44.06 80.0311C43.6467 80.1911 43.08 80.2711 42.36 80.2711L37.56 80.1511L32.76 80.0711C31.1867 80.0711 30.0267 80.1044 29.28 80.1711C28.5333 80.2378 28.0133 80.2711 27.72 80.2711C27.4 80.2711 27.1 80.2178 26.82 80.1111C26.54 80.0044 26.4 79.8178 26.4 79.5511C26.4 78.7778 26.52 78.1644 26.76 77.7111C27.2933 76.6978 27.56 74.9644 27.56 72.5111V59.6711C27.56 58.0444 27.4667 56.8044 27.28 55.9511C27.04 55.0711 26.8 54.1778 26.56 53.2711C26.56 52.9511 26.6933 52.7044 26.96 52.5311C27.2267 52.3578 27.6533 52.2711 28.24 52.2711L31.12 52.3911C31.5733 52.3911 32.28 52.4044 33.24 52.4311C34.0933 52.4548 34.757 52.468 35.2311 52.4706L38.4 52.4711C39.2533 52.4711 40.12 52.4311 41 52.3511L42.68 52.2711C43.0533 52.2711 43.3533 52.3511 43.58 52.5111C43.8067 52.6711 43.92 52.9778 43.92 53.4311C43.92 53.7778 43.8933 54.2578 43.84 54.8711C43.7867 55.4844 43.76 56.0978 43.76 56.7111C43.76 56.8978 43.7733 57.1111 43.8 57.3511C43.8267 57.5911 43.8733 57.8778 43.94 58.2111C44.0067 58.5444 44.0667 58.8378 44.12 59.0911C44.1733 59.3444 44.2 59.5778 44.2 59.7911C44.2 60.6178 43.7733 61.0311 42.92 61.0311C42.5467 61.0311 42.1733 60.9244 41.8 60.7111C41.3733 60.4178 41.0667 60.2044 40.88 60.0711C39.8933 59.4044 38.8133 59.0711 37.64 59.0711C36.68 59.0711 35.96 59.2578 35.48 59.6311C35 60.0044 34.76 60.4578 34.76 60.9911C34.76 61.6044 35.04 62.0311 35.6 62.2711C36.16 62.5111 36.9333 62.6311 37.92 62.6311C38.32 62.6311 38.9933 62.6044 39.94 62.5511C40.8867 62.4978 41.3867 62.4711 41.44 62.4711C42.3733 62.4711 43.14 62.5844 43.74 62.8111C44.34 63.0378 44.64 63.4844 44.64 64.1511C44.64 64.6044 44.4067 64.9978 43.94 65.3311C43.4733 65.6644 42.68 65.8311 41.56 65.8311H36.4C35.84 65.8311 35.4267 65.9378 35.16 66.1511C34.8933 66.3644 34.76 66.8044 34.76 67.4711V73.5511C34.76 74.4044 35 74.9778 35.48 75.2711C35.8 75.4578 36.2933 75.5511 36.96 75.5511H37.48C38.3867 75.5511 39.1 75.5111 39.62 75.4311C40.14 75.3511 40.7733 75.1244 41.52 74.7511C41.84 74.5911 42.16 74.4177 42.48 74.2311C43.04 73.8844 43.4933 73.7111 43.84 73.7111C44.2133 73.7111 44.4667 73.8111 44.6 74.0111C44.7333 74.2111 44.8 74.4178 44.8 74.6311C44.8 74.8978 44.7667 75.2178 44.7 75.5911C44.6333 75.9644 44.6 76.4311 44.6 76.9911L44.68 78.9911C44.68 79.5244 44.4733 79.8711 44.06 80.0311ZM48.24 80.2711C48.4267 80.2711 48.8867 80.2511 49.62 80.2111C50.3533 80.1711 51.16 80.1511 52.04 80.1511C52.76 80.1511 53.4 80.1711 53.96 80.2111C54.52 80.2511 55.1067 80.2711 55.72 80.2711C55.96 80.2711 56.18 80.2244 56.38 80.1311C56.58 80.0378 56.68 79.8577 56.68 79.5911C56.3867 78.7911 56.0933 77.9777 55.8 77.1511C55.5333 76.2444 55.4 75.1911 55.4 73.9911V65.1111C55.4 64.6044 55.4467 64.2511 55.54 64.0511C55.6333 63.8511 55.7467 63.7511 55.88 63.7511C56.52 63.7511 57.4133 64.5111 58.56 66.0311C59.8133 67.6844 60.44 69.2178 60.44 70.6311V74.4711C60.44 76.2578 60.2933 77.3911 60 77.8711C59.7067 78.3511 59.56 78.8711 59.56 79.4311C59.56 79.7511 59.72 79.9911 60.04 80.1511C60.2267 80.2311 60.44 80.2711 60.68 80.2711C61.2667 80.2444 61.8333 80.2111 62.38 80.1711C62.9267 80.1311 63.52 80.1111 64.16 80.1111C64.5067 80.1111 65.04 80.1378 65.76 80.1911C66.48 80.2444 67.0933 80.2711 67.6 80.2711C67.84 80.2711 68.0533 80.2311 68.24 80.1511C68.4267 80.0711 68.52 79.8844 68.52 79.5911L67.88 77.1111C67.72 76.2578 67.64 75.0978 67.64 73.6311V59.7111C67.64 58.1911 67.7333 56.8978 67.92 55.8311C68.1067 54.7644 68.32 53.8044 68.56 52.9511C68.56 52.4978 68.24 52.2711 67.6 52.2711C66.8533 52.2711 66.2867 52.2911 65.9 52.3311C65.5133 52.3711 64.7867 52.3911 63.72 52.3911L59.84 52.2711C59.3333 52.2711 59.0133 52.3378 58.88 52.4711C58.7467 52.6044 58.68 52.7644 58.68 52.9511C58.68 53.0578 58.76 53.2044 58.92 53.3911C59.1867 53.6844 59.4067 53.9644 59.58 54.2311C59.7533 54.4978 59.92 54.8778 60.08 55.3711C60.24 55.8644 60.32 56.3644 60.32 56.8711V57.5111C60.32 57.6444 60.2533 57.7511 60.12 57.8311C60.0933 57.8311 60.04 57.8444 59.96 57.8711C59.8 57.8711 59.5067 57.6311 59.08 57.1511C58.36 56.3511 57.64 55.6178 56.92 54.9511C56.04 54.0978 55.3067 53.4711 54.72 53.0711C53.9467 52.5378 53.2667 52.2711 52.68 52.2711L51.48 52.3511L50.12 52.3911L48.4 52.3511L47.32 52.2711C46.7333 52.2711 46.44 52.5511 46.44 53.1111C46.44 53.4311 46.5067 53.7111 46.64 53.9511C47.2533 55.0978 47.6267 55.9244 47.76 56.4311C48.0533 57.4711 48.2 58.9778 48.2 60.9511V74.5511C48.2 75.3244 48.1467 75.9511 48.04 76.4311C47.9333 76.9111 47.76 77.4444 47.52 78.0311C47.2 78.8844 47.04 79.3778 47.04 79.5111C47.04 79.8577 47.1667 80.0711 47.42 80.1511C47.6733 80.2311 47.9467 80.2711 48.24 80.2711ZM86.62 78.7711C85.0867 79.9844 82.8133 80.5911 79.8 80.5911C76.3067 80.5911 73.8667 79.8178 72.48 78.2711C71.4933 77.1777 71 75.6178 71 73.5911V58.9511C71 58.4444 70.9733 57.7644 70.92 56.9111C70.8667 56.0578 70.8 55.4844 70.72 55.1911C70.64 54.8978 70.5267 54.5111 70.38 54.0311C70.2333 53.5511 70.16 53.1778 70.16 52.9111C70.16 52.4844 70.4267 52.2711 70.96 52.2711C71.3067 52.2711 71.8133 52.2911 72.48 52.3311C73.0726 52.3666 73.8232 52.3864 74.7319 52.3903L75.08 52.3911C75.96 52.3911 76.6267 52.3711 77.08 52.3311C77.5333 52.2911 78.0533 52.2711 78.64 52.2711C79.1467 52.2711 79.4 52.4844 79.4 52.9111C79.4 52.9911 79.3533 53.1644 79.26 53.4311C79.1667 53.6978 79.0733 54.0044 78.98 54.3511C78.8867 54.6978 78.8133 55.0311 78.76 55.3511C78.5467 56.3111 78.4 57.0244 78.32 57.4911C78.24 57.9578 78.2 58.6311 78.2 59.5111V72.1111C78.2 72.8844 78.32 73.4644 78.56 73.8511C78.8 74.2378 79.2533 74.4311 79.92 74.4311C80.72 74.4311 81.2533 74.1244 81.52 73.5111C81.6533 73.1911 81.72 72.7511 81.72 72.1911V58.1911C81.72 57.3911 81.7 56.7778 81.66 56.3511C81.62 55.9244 81.52 55.4578 81.36 54.9511C81.1733 54.4978 81.04 54.1644 80.96 53.9511C80.8 53.5511 80.72 53.2311 80.72 52.9911C80.72 52.7511 80.78 52.5711 80.9 52.4511C81.02 52.3311 81.24 52.2711 81.56 52.2711C82.2533 52.2711 82.8867 52.2844 83.46 52.3111C84.0333 52.3378 84.5867 52.3644 85.12 52.3911L85.6942 52.3901C86.694 52.3867 87.4026 52.3736 87.82 52.3511C88.3133 52.3244 88.7867 52.2978 89.24 52.2711C89.7733 52.2711 90.04 52.4844 90.04 52.9111C90.04 53.3911 89.9333 53.9111 89.72 54.4711C89.1867 55.8844 88.92 57.6711 88.92 59.8311V73.1911C88.92 75.6978 88.1533 77.5578 86.62 78.7711Z" fill="black"/>
</svg>
