<svg width="12" height="12" viewBox="0 0 12 12" fill="none" xmlns="http://www.w3.org/2000/svg">
<path d="M9.86966 2.13006C9.22829 1.4887 7.08127 -0.550554 6.3894 0.141367C5.69752 0.833242 7.73673 2.98026 8.37814 3.62163C9.01951 4.26304 11.1665 6.30224 11.8584 5.61037C12.5503 4.91849 10.5111 2.77148 9.86966 2.13006Z" fill="#C5CBD1"/>
<path d="M4.13889 2.39254C2.67257 3.85884 2.16908 5.99177 2.82477 7.95893C2.84202 8.0106 2.87115 8.05771 2.90973 8.09629L3.90409 9.09068C3.94272 9.12925 3.9898 9.15839 4.0415 9.17564C6.00866 9.83135 8.14159 9.32786 9.60789 7.86152L11.0744 6.39501C10.2591 6.19115 9.20359 5.44078 7.88157 4.11878C6.55961 2.79682 5.80923 1.74128 5.60539 0.925964L4.13889 2.39254Z" fill="#C5CBD1"/>
<path d="M2.21149 8.29697L1.61198 8.90625H1.05457C0.472945 8.90625 0 9.36937 0 9.95104C0 10.5128 0.441609 10.9738 0.995812 11.0041C1.01016 11.2637 1.11795 11.506 1.30317 11.6912C1.50225 11.8903 1.76735 12 2.04895 12C2.63063 12 3.09375 11.5271 3.09375 10.9454V10.388L3.70305 9.78848C3.59452 9.7368 3.4916 9.67296 3.4065 9.58786L2.41214 8.5935C2.32706 8.5084 2.2632 8.40548 2.21149 8.29697V8.29697Z" fill="#C5CBD1"/>
</svg>
