<svg width="24" height="19" viewBox="0 0 24 19" fill="none" xmlns="http://www.w3.org/2000/svg">
<path fill-rule="evenodd" clip-rule="evenodd" d="M0.826205 3.05404L23.2749 5.15082C23.6635 5.18715 23.9606 5.51323 23.9606 5.90347V17.5349C23.9606 17.9521 23.6221 18.2908 23.2046 18.2908C23.2023 18.2908 23.2019 18.291 23.2015 18.2911C23.1951 18.2937 23.1873 18.293 14.7276 17.5025L0.685606 16.1907C0.297071 16.1544 0 15.8283 0 15.4381V11.9904C0 11.5729 0.338457 11.2344 0.755906 11.2344C1.57696 11.2344 2.24499 10.5665 2.24499 9.74541C2.24499 8.9243 1.57696 8.25627 0.755906 8.25627C0.338457 8.25627 0 7.91786 0 7.50037V3.80663C0 3.36089 0.384189 3.01241 0.826205 3.05404ZM6.61701 10.5567C6.61701 11.5366 7.41132 12.3309 8.39116 12.3309C9.37101 12.3309 10.1653 11.5366 10.1653 10.5567C10.1653 9.57689 9.37101 8.78257 8.39116 8.78257C7.41132 8.78257 6.61701 9.57689 6.61701 10.5567ZM15.3978 14.859C14.9216 14.859 14.5356 14.4729 14.5356 13.9967C14.5356 13.5205 14.9216 13.1345 15.3978 13.1345C15.8741 13.1345 16.2601 13.5205 16.2601 13.9967C16.2601 14.4729 15.8741 14.859 15.3978 14.859ZM14.7558 9.27452C14.7558 10.2544 15.5502 11.0487 16.53 11.0487C17.5098 11.0487 18.3042 10.2544 18.3042 9.27452C18.3042 8.29468 17.5098 7.50037 16.53 7.50037C15.5502 7.50037 14.7558 8.29468 14.7558 9.27452Z" fill="#C5CBD1"/>
<path d="M21.1377 3.43285C21.7436 3.48945 22.1504 2.82553 21.8249 2.31137L20.584 0.351496C20.4225 0.0965196 20.1249 -0.0378898 19.8266 0.0093543L8.71928 1.7752C8.42698 1.82168 8.44073 2.24688 8.73539 2.27438L21.1377 3.43285Z" fill="#C5CBD1"/>
</svg>
